inDegrees=yes
name=ik_lifting_orientations
DataType=double
version=3
OpenSimVersion=4.5-2024-01-10-34fd6af
endheader
time	pelvis_tilt	pelvis_list	pelvis_rotation	pelvis_tx	pelvis_ty	pelvis_tz	hip_flexion_r	hip_adduction_r	hip_rotation_r	knee_angle_r	knee_angle_r_beta	ankle_angle_r	subtalar_angle_r	mtp_angle_r	hip_flexion_l	hip_adduction_l	hip_rotation_l	knee_angle_l	knee_angle_l_beta	ankle_angle_l	subtalar_angle_l	mtp_angle_l	lumbar_extension	lumbar_bending	lumbar_rotation	arm_flex_r	arm_add_r	arm_rot_r	elbow_flex_r	pro_sup_r	wrist_flex_r	wrist_dev_r	arm_flex_l	arm_add_l	arm_rot_l	elbow_flex_l	pro_sup_l	wrist_flex_l	wrist_dev_l
0.84	0.004485244308564689	-0.01334790147454069	-87.67090423173327	0	0.9399999999999999	0	44.73051632325702	-10.00183731120991	0	59.02557868486299	1.030190690945844	-5.000119316856452	0	0	44.73051632325702	-10.00183731120991	0	59.02557868486299	1.030190690945844	-5.000119316856452	0	0	-0.01862394351349074	-0.0009517783974320111	-0.00035763175013899	-0.3073157708003874	0.4954998753971607	0.6627493740679308	1.006108434850932	45.02642390821991	0	0	0	-12.93184474235902	0	74.83866014309164	45.02642390821991	0	0
0.85	0.006226926268759166	-0.006512308226730595	-87.68472753388225	0	0.9399999999999999	0	44.73066510910213	-10.00183376603574	0	59.02600019116576	1.030198047618645	-5.000119016335032	0	0	44.73066510910213	-10.00183376603574	0	59.02600019116576	1.030198047618645	-5.000119016335032	0	0	-0.006835885012228713	-0.009475246849536373	0.03572559857616549	-0.2088636687078399	0.4406883410891925	0.9139673746878358	1.801631476418439	45.026383566263	0	0	0	-12.93242870070222	0	74.83874931706552	45.026383566263	0	0
0.86	0.006387513935797164	0.03053504190490561	-87.66213558292284	0	0.9399999999999999	0	44.7361506730672	-10.00171642930562	0	59.04167139964039	1.030471561804294	-5.000109485602018	0	0	44.7361506730672	-10.00171642930562	0	59.04167139964039	1.030471561804294	-5.000109485602018	0	0	0.04505783087030182	0.0003280521044560341	0.003557257152482647	-0.3443964195538248	0.3801219492253372	0.9207296298465968	2.052767225329797	45.02500702905873	0	0	0	-12.95443850475523	0	74.84203706390436	45.02500702905873	0	0
0.87	-0.01952510059694382	0.01056577245670734	-87.67621295139719	0	0.9399999999999999	0	44.73618235535451	-10.00171571080204	0	59.04176192987838	1.030473141855019	-5.000109425760726	0	0	44.73618235535451	-10.00171571080204	0	59.04176192987838	1.030473141855019	-5.000109425760726	0	0	0.02185849437626181	0.03308620714777446	-0.004078551836292929	-0.2638434237522297	0.6539253173212495	0.9004225981580068	2.095952005354581	45.0249987456241	0	0	0	-12.95456446496456	0	74.84205605252065	45.0249987456241	0	0
0.88	0.01097101203663441	0.02238848060039815	-87.66511795227559	0	0.9399999999999999	0	44.74121201201368	-10.00161243570924	0	59.05618686585846	1.030724904482261	-5.000101166979794	0	0	44.74121201201368	-10.00161243570924	0	59.05618686585846	1.030724904482261	-5.000101166979794	0	0	0.03730730941446758	-0.01489066736534591	-0.008767604958788129	-0.3769068021298168	0.6389316144947379	0.8940633525291773	2.323373073538095	45.02377338710021	0	0	0	-12.97492189098543	0	74.84507055485714	45.02377338710021	0	0
0.89	-0.01299808664218781	0.01379957243963973	-87.68656719622687	0	0.9399999999999999	0	44.74261934695195	-10.00158492423721	0	59.06025575680341	1.030795920026155	-5.000098996685506	0	0	44.74261934695195	-10.00158492423721	0	59.06025575680341	1.030795920026155	-5.000098996685506	0	0	0.02262643068541478	0.02253050759298868	0.01303369773826879	-0.2526446640165045	0.6623270441177344	0.8967316932514433	2.089040226502574	45.02344327901092	0	0	0	-12.98071284512724	0	74.8459140354361	45.02344327901092	0	0
0.9	-0.01460778314811068	-0.002607263563868007	-87.67641298108009	0	0.9399999999999999	0	44.74267007260331	-10.00158383222917	0	59.06040112765287	1.030798457226114	-5.000098907566483	0	0	44.74267007260331	-10.00158383222917	0	59.06040112765287	1.030798457226114	-5.000098907566483	0	0	-0.01010186358018031	0.02189882568478525	-0.003666368308766079	-0.34320975647636	1.140180635608709	0.815786982355086	2.233791865856711	45.0234305038022	0	0	0	-12.98091659443849	0	74.84594443761351	45.0234305038022	0	0
0.91	0.0121503506568313	-0.02352588347873067	-87.68297287144588	0	0.9399999999999999	0	44.74281466692629	-10.00158072532832	0	59.0608149859719	1.030805680416418	-5.000098654320206	0	0	44.74281466692629	-10.00158072532832	0	59.0608149859719	1.030805680416418	-5.000098654320206	0	0	-0.02985204010260507	-0.006872368892865702	0.008316254224610754	-0.3191277744273406	1.047664182058247	1.107117723820143	3.193621292473501	45.02339412809649	0	0	0	-12.98149701419667	0	74.84603109953154	45.02339412809649	0	0
0.92	-0.006040150104337315	0.0001665408664382205	-87.67794481445011	0	0.9399999999999999	0	44.74895275517463	-10.00145965872771	0	59.07848364189798	1.03111405663673	-5.000089122411593	0	0	44.74895275517463	-10.00145965872771	0	59.07848364189798	1.03111405663673	-5.000089122411593	0	0	0.005266458392160842	0.002973672011302799	-0.001097662393126396	-0.3183630826542277	1.059711070979727	1.102164817637405	3.180785500856235	45.02194153054673	0	0	0	-13.00655668466091	0	74.84970993715427	45.02194153054673	0	0
0.93	0.00350923879332076	-0.001118746192649219	-87.67746249039939	0	0.9399999999999999	0	44.74903564314912	-10.00145797039686	0	59.07872202049742	1.031118217128157	-5.000088987654091	0	0	44.74903564314912	-10.00145797039686	0	59.07872202049742	1.031118217128157	-5.000088987654091	0	0	-0.006463259445281674	-0.002383512095954072	0.0007837084064166792	-0.4726450710142914	1.75420090603576	0.9818260735210337	3.668241891595331	45.02192146481485	0	0	0	-13.00689322072448	0	74.84975961569705	45.02192146481485	0	0
0.9399999999999999	0.00197919746628265	-0.01233815914731905	-87.67490815251153	0	0.9399999999999999	0	44.74910258027364	-10.00145660854633	0	59.07891459377777	1.03112157816595	-5.000088878999973	0	0	44.74910258027364	-10.00145660854633	0	59.07891459377777	1.03112157816595	-5.000088878999973	0	0	-0.01812420724251123	-0.001866120348116261	-0.002987477619130027	-0.522339008693458	2.090046111816052	0.4225577145536251	4.316623430078495	45.02190527445036	0	0	0	-13.0071650902978	0	74.84979973416861	45.02190527445036	0	0
0.95	0.002502018280851115	-0.004777529370726685	-87.67760004591369	0	0.9399999999999999	0	44.74918146886984	-10.00145500429564	0	59.07914152937967	1.031125538939393	-5.000088751037671	0	0	44.74918146886984	-10.00145500429564	0	59.07914152937967	1.031125538939393	-5.000088751037671	0	0	-0.009470449458515842	-0.001553299781653217	0.001158687513901299	-0.6840254254647175	2.796079712169042	0.3174365800889002	4.801273425028705	45.02188619926471	0	0	0	-13.00748551023039	0	74.84984701570244	45.02188619926471	0	0
0.96	-0.03973740190923812	-0.000817976292554547	-87.66978934869422	0	0.9399999999999999	0	44.74920764050176	-10.00145447549799	0	59.07921717349431	1.031126859178254	-5.000088708916754	0	0	44.74920764050176	-10.00145447549799	0	59.07921717349431	1.031126859178254	-5.000088708916754	0	0	-0.02325989979905576	0.06487677927241327	-0.008193942036240106	-0.7535389495340884	3.259398976959885	0.2520349217306193	4.957425906747845	45.02187990404681	0	0	0	-13.00759217912986	0	74.84986270155669	45.02187990404681	0	0
